<?xml version="1.0" encoding="UTF-8" standalone="no"?>
<svg
   xmlns:dc="http://purl.org/dc/elements/1.1/"
   xmlns:cc="http://creativecommons.org/ns#"
   xmlns:rdf="http://www.w3.org/1999/02/22-rdf-syntax-ns#"
   xmlns:svg="http://www.w3.org/2000/svg"
   xmlns="http://www.w3.org/2000/svg"
   xmlns:sodipodi="http://sodipodi.sourceforge.net/DTD/sodipodi-0.dtd"
   xmlns:inkscape="http://www.inkscape.org/namespaces/inkscape"
   height="100px"
   width="100px"
   fill="#000000"
   version="1.1"
   x="0px"
   y="0px"
   viewBox="0 0 100 100"
   enable-background="new 0 0 100 100"
   xml:space="preserve"
   id="svg4"
   sodipodi:docname="icon2.svg"
   inkscape:version="0.92.1 r15371"
   inkscape:export-filename="/home/maja/github/ws/ws/static/icon.svg.png"
   inkscape:export-xdpi="122.88"
   inkscape:export-ydpi="122.88"><metadata
     id="metadata10"><rdf:RDF><cc:Work
         rdf:about=""><dc:format>image/svg+xml</dc:format><dc:type
           rdf:resource="http://purl.org/dc/dcmitype/StillImage" /><dc:title></dc:title></cc:Work></rdf:RDF></metadata><defs
     id="defs8" /><sodipodi:namedview
     pagecolor="#ffffff"
     bordercolor="#666666"
     borderopacity="1"
     objecttolerance="10"
     gridtolerance="10"
     guidetolerance="10"
     inkscape:pageopacity="0"
     inkscape:pageshadow="2"
     inkscape:window-width="863"
     inkscape:window-height="749"
     id="namedview6"
     showgrid="false"
     inkscape:zoom="2.36"
     inkscape:cx="50.847458"
     inkscape:cy="82.20339"
     inkscape:window-x="0"
     inkscape:window-y="27"
     inkscape:window-maximized="0"
     inkscape:current-layer="svg4" /><path
     id="path2"
     d="M 76.141052,1.7980741 C 73.608815,1.7067146 71.080207,2.9025107 69.479395,5.2304663 66.915508,8.955195 67.698569,14.17011 71.224234,16.875037 l 3.933454,3.019652 c -1.142517,0.639421 -2.110752,1.632083 -2.743332,2.891838 L 69.555038,18.629844 C 67.765054,16.030366 64.818732,14.8495 62.003311,15.29065 c -0.502289,0.397584 -1.076721,0.550136 -1.638939,0.458008 -0.638002,0.256712 -1.257046,0.594236 -1.835612,1.038506 -3.528247,2.706289 -4.308665,7.919841 -1.747362,11.644569 2.561304,3.724729 7.499262,4.551635 11.0288,1.845345 l 3.930933,-3.016991 c 0.22463,1.372914 0.842142,2.648668 1.757447,3.650744 l -4.62433,1.587049 c -4.147917,1.423359 -6.417178,6.124368 -5.068105,10.504878 1.349074,4.377783 5.799121,6.773055 9.949623,5.346969 4.145334,-1.424722 6.414656,-6.127094 5.065582,-10.504877 l -1.497739,-4.883636 c 1.336164,0.203142 2.665611,-0.0392 3.830075,-0.63908 l -0.0026,5.136605 c 0,4.604103 3.535006,8.337331 7.894644,8.337331 4.359636,0 7.892122,-3.733228 7.892122,-8.337331 0,-4.604103 -3.532485,-8.334668 -7.892122,-8.334668 H 84.18186 l 0.350482,-0.913352 c 0.320163,-1.045706 0.397843,-2.111691 0.259709,-3.131492 l 4.62685,1.587048 c 4.142754,1.421995 8.598026,-0.973148 9.9471,-5.352295 1.346509,-4.377783 -0.925211,-9.082882 -5.073128,-10.504878 -4.145336,-1.4219952 -8.595566,0.973148 -9.942057,5.352295 l -1.505303,4.883636 C 82.147093,20.3279 81.28024,19.764211 80.288767,19.423368 l -0.900155,-0.236992 2.86184,-4.156683 C 84.814338,11.304964 84.032629,6.091413 80.503091,3.3851222 79.18145,2.3707743 77.660332,1.8528911 76.140991,1.7980741 Z M 62.184855,3.3079008 c -0.123921,0.1122736 -0.24687,0.2256788 -0.370652,0.3381801 0.165373,-0.075422 0.277593,-0.1767161 0.370652,-0.2875867 z M 39.24475,9.6401184 c -0.766842,-0.055476 -1.557487,0.046668 -2.329815,0.327528 -3.089315,1.1234176 -4.73247,4.6780236 -3.668703,7.9405696 l 1.187601,3.640093 c -0.96178,-0.126793 -1.960736,0.04318 -2.86184,0.529904 l -0.06556,-3.850457 c -0.0568,-3.449328 -2.752509,-6.19652 -6.018688,-6.135168 -3.266179,0.05999 -5.870026,2.905493 -5.811932,6.356184 0.0568,3.449326 2.75122,6.195154 6.01869,6.135168 l 3.640966,-0.06657 c -0.416987,0.944816 -0.559579,2.008884 -0.405953,3.040956 l -3.484633,-1.126382 c -3.12546,-1.008894 -6.432508,0.849338 -7.387833,4.148695 -0.954034,3.30072 0.80418,6.791908 3.930933,7.799439 3.124171,1.008894 6.433739,-0.846674 7.390355,-4.146032 l 1.064049,-3.677373 c 0.73715,0.732131 1.654311,1.183853 2.612218,1.344731 l -2.092801,3.155459 c -1.874503,2.824904 -1.22391,6.722526 1.454873,8.70214 2.67491,1.978251 6.363059,1.291175 8.23756,-1.536454 1.874502,-2.824907 1.22385,-6.719864 -1.452352,-8.699478 l -2.985391,-2.207488 0.587498,-0.402088 c 0.622252,-0.496267 1.102981,-1.118263 1.43218,-1.805402 l 2.196179,3.07291 c 1.96487,2.758099 5.677688,3.306643 8.285467,1.230229 2.607779,-2.076413 3.125966,-5.994698 1.162386,-8.750071 -1.964871,-2.756735 -5.676398,-3.308006 -8.285468,-1.230229 l -2.907225,2.316665 C 38.550667,24.9882 38.249707,24.249211 37.77979,23.590703 l -0.458903,-0.556532 3.446815,-1.251532 c 3.089315,-1.123418 4.732409,-4.680687 3.671224,-7.943233 -0.798794,-2.447932 -2.89365,-4.0328719 -5.194176,-4.1992876 z m 36.548342,0.039947 c 0.327104,-0.054889 0.689303,0.1203584 0.756434,0.5804936 l 1.323759,8.832618 c -0.444097,0.02727 -0.880086,0.101108 -1.306109,0.218352 L 75.243417,10.47891 C 75.17435,10.018773 75.46599,9.7349367 75.793092,9.680061 Z M 38.803497,15.509008 c 0.306154,0.03628 0.58669,0.364275 0.405953,0.756244 l -2.781154,6.023329 C 36.145572,22.103163 35.84554,21.95055 35.535705,21.830573 l 2.783675,-6.023328 c 0.108442,-0.235695 0.300425,-0.320007 0.484117,-0.298237 z m -13.121599,2.42584 c 0.123999,-0.0098 0.256926,0.0331 0.375696,0.154445 l 4.566336,4.657295 c -0.255614,0.229046 -0.486962,0.479609 -0.688354,0.750919 L 25.36924,18.842871 c -0.357279,-0.36402 -0.05932,-0.878374 0.312658,-0.908027 z m 65.953432,0.205039 c 0.630356,-0.03909 1.003111,0.960407 0.315181,1.331417 l -7.544163,4.058157 c -0.161373,-0.434915 -0.362442,-0.850892 -0.605146,-1.243542 l 7.551726,-4.060822 c 0.09828,-0.05283 0.192351,-0.07962 0.282402,-0.08521 z m -28.139324,4.745169 8.363633,1.397987 c -0.116188,0.458092 -0.183522,0.922555 -0.206759,1.38201 l -8.363632,-1.40065 c -0.871411,-0.14588 -0.664653,-1.525228 0.206758,-1.379347 z m -24.727809,4.058153 6.285962,0.931992 c 0.655818,0.09816 0.517138,1.134006 -0.138679,1.035843 l -6.283441,-0.931992 c 0.07617,-0.339479 0.123249,-0.68682 0.136158,-1.035843 z m -9.52854,1.773448 c 0.122644,0.319029 0.277985,0.628152 0.466468,0.924003 l -5.605172,3.14747 c -0.583523,0.327209 -1.047469,-0.596795 -0.463946,-0.924004 z m 54.122813,1.75747 5.990953,6.321567 c 0.622252,0.661234 -0.315665,1.649081 -0.9405,0.990573 L 82.427013,31.4647 c 0.340819,-0.294485 0.655314,-0.626553 0.935457,-0.990573 z m -48.197418,1.2968 1.104393,6.595837 c 0.114897,0.687139 -0.863423,0.870875 -0.97832,0.183736 l -1.101872,-6.601164 c 0.3292,-0.02454 0.654345,-0.08297 0.975799,-0.178409 z m 39.508519,0.157107 c 0.367929,0.248133 0.761759,0.46197 1.180037,0.633754 l -3.845204,7.967198 c -0.400204,0.830293 -1.57895,0.193875 -1.180037,-0.636418 z M 60.177784,32.89198 c -0.46088,2.264556 -2.363279,3.962295 -4.647022,3.962296 l -12.491237,-0.04526 c 0.140716,0.665325 0.186324,1.339726 0.143722,2.007778 l 12.344994,0.04526 c 3.191302,0 5.857195,-2.370348 6.507848,-5.533368 -0.64549,-0.07635 -1.268327,-0.225382 -1.858305,-0.436706 z M 47.847919,43.111934 c -3.675419,0 -6.656614,3.142974 -6.656614,7.027217 l -0.0026,15.851847 c 0,2.775823 -2.129592,5.022105 -4.755445,5.022105 H 24.345533 c -3.676711,0 -6.659136,3.145637 -6.659136,7.02988 v 5.994037 h -1.946556 v -6.07126 c 0,-4.533207 3.194651,-8.277214 7.337405,-8.85392 h 7.438262 c 3.67671,0 6.656614,-3.144274 6.656614,-7.02988 V 46.347277 c -0.611924,0.1377 -1.247933,0.183774 -1.901169,0.125157 l -0.0026,15.60953 c 0,2.774459 -2.129592,5.022104 -4.755445,5.022104 l -12.196229,0.0053 c -6.005638,0 -10.874991,5.143699 -10.874991,11.487463 v 5.442831 H 1.0674936 c -0.52542879,0 -0.95058457,0.450361 -0.95058457,1.003889 v 9.982962 c 0,0.553528 0.42515578,1.003888 0.95058457,1.003888 h 4.7327523 v 1.738831 c 0,0.552165 0.4264467,1.003888 0.9505845,1.003888 h 4.5789436 c 0.524138,0 0.948063,-0.451723 0.948063,-1.003888 v -1.738831 h 44.604359 v 1.738831 c 0,0.552165 0.426446,1.003888 0.950584,1.003888 h 4.576423 c 0.522846,0 0.948063,-0.451723 0.948063,-1.003888 v -1.738831 h 4.732752 c 0.524138,0 0.953106,-0.45036 0.953106,-1.003888 v -5.022104 c -1.680856,-0.06408 -3.414218,-0.692083 -5.020197,-2.066358 -1.243153,-1.064789 -2.128603,-2.420427 -2.642413,-3.901048 H 23.394948 v -5.994037 c 0,-0.554892 0.425217,-1.003888 0.948063,-1.003888 l 25.171584,0.0027 C 49.24478,76.392857 49.04248,75.719885 48.906927,75.031383 l -24.563916,-0.0027 c -1.574995,0 -2.851755,1.349651 -2.851755,3.014327 v 5.994037 0.0027 h -1.90369 V 78.04571 c 0,-2.777187 2.127071,-5.024767 4.752924,-5.024767 l 12.090327,0.0027 c 3.678002,0 6.659136,-3.145637 6.659136,-7.02988 V 50.141814 c 0,-2.774459 2.133405,-5.022103 4.757966,-5.022103 l 15.249699,0.0027 C 62.845877,44.611174 62.630465,44.059222 62.444564,43.466155 L 62.3437,43.111998 Z m 25.925496,7.796776 c -0.41006,0.02596 -0.823201,0.09646 -1.235508,0.213027 -3.302326,0.932545 -5.260319,4.51035 -4.374707,7.996489 l 0.985885,3.885074 c -0.995345,-0.205869 -2.049814,-0.103426 -3.023212,0.332854 l 0.199194,-4.018216 c 0.179446,-3.599298 -2.440275,-6.672613 -5.849752,-6.862121 -3.409478,-0.189509 -6.318317,2.578411 -6.497763,6.180436 -0.180737,3.599299 2.440274,6.67125 5.849752,6.862121 l 3.802339,0.210364 c -0.49961,0.95436 -0.721961,2.050147 -0.632883,3.139481 l -3.557758,-1.443255 c -3.190011,-1.293839 -6.76538,0.384342 -7.987937,3.754595 -1.226431,3.367525 0.367747,7.144744 3.557758,8.435856 3.184847,1.291112 6.762797,-0.388369 7.987937,-3.757258 l 1.366623,-3.751933 c 0.719076,0.820749 1.638455,1.365736 2.627345,1.605689 l -2.395373,3.126167 c -2.150772,2.801724 -1.740199,6.915464 0.912764,9.184112 2.652964,2.268649 6.548212,1.840507 8.698985,-0.963946 2.146899,-2.803091 1.740261,-6.9154 -0.915286,-9.186775 l -2.957654,-2.527028 0.635404,-0.37546 c 0.682928,-0.469 1.228771,-1.078192 1.623811,-1.770784 l 2.072628,3.373809 c 1.85772,3.026683 5.688117,3.88452 8.550218,1.919903 2.864684,-1.961891 3.678204,-6.005648 1.820484,-9.032331 -1.860302,-3.02532 -5.690578,-3.883157 -8.555262,-1.919903 l -3.19215,2.18885 c -0.09037,-0.801662 -0.352679,-1.595379 -0.796776,-2.319329 L 72.053789,64.779409 75.7351,63.735578 c 3.298453,-0.931182 5.257796,-4.511712 4.372184,-7.996488 -0.772652,-3.050371 -3.463448,-5.0121 -6.333869,-4.83038 z m 0.153808,6.137831 c 0.381545,-0.08237 0.822153,0.34406 0.559761,0.817491 l -3.310657,6.065933 c -0.284015,-0.214048 -0.585157,-0.399999 -0.900156,-0.54588 l 3.318222,-6.068597 c 0.08585,-0.15747 0.205648,-0.241487 0.33283,-0.268947 z m -13.653624,1.517816 c 0.129704,-10e-4 0.26332,0.05409 0.378217,0.189061 l 4.437743,5.205839 c -0.285306,0.220866 -0.540537,0.466486 -0.76904,0.729616 l -4.437743,-5.203176 c -0.344692,-0.405944 0.0017,-0.91821 0.390823,-0.92134 z m 13.020742,10.395702 6.487677,1.456569 c 0.673891,0.149971 0.459569,1.220429 -0.214322,1.070459 L 73.080018,70.03318 c 0.103278,-0.349023 0.176885,-0.705011 0.214323,-1.073121 z m -10.058044,1.118389 c 0.108442,0.342206 0.246739,0.676807 0.423603,0.998563 l -6.061554,2.849232 c -0.629997,0.297215 -1.051078,-0.701348 -0.42108,-0.998563 z m 5.96826,3.640093 0.693397,6.96331 c 0.071,0.726676 -0.957685,0.841183 -1.031271,0.114496 l -0.693397,-6.965972 c 0.345983,0 0.690453,-0.03685 1.031271,-0.111838 z"
     inkscape:connector-curvature="0"
     style="stroke-width:1.32668161;fill:#209cee;fill-opacity:0.94117647" /></svg>