<svg viewBox="0 0 30 30" xmlns="http://www.w3.org/2000/svg">
        <path
          d="M14.97 30c4.154 0 7.698-1.466 10.63-4.4 2.934-2.932 4.4-6.476 4.4-10.63 0-4.115-1.466-7.638-4.4-10.57C22.669 1.465 19.125 0 14.97 0 10.854 0 7.331 1.466 4.4 4.4 1.465 7.331 0 10.854 0 14.97c0 4.154 1.466 7.698 4.4 10.63 2.932 2.934 6.455 4.4 10.57 4.4zm0-28.717c3.788 0 7.016 1.344 9.684 4.033 2.668 2.688 4.002 5.906 4.002 9.653 0 3.789-1.334 7.017-4.002 9.685-2.668 2.668-5.896 4.002-9.685 4.002-3.747 0-6.965-1.334-9.653-4.002-2.689-2.668-4.033-5.896-4.033-9.685 0-3.747 1.344-6.965 4.033-9.653 2.688-2.689 5.906-4.033 9.653-4.033zM8.981 20.957c.285.367.59.367.916 0l5.071-5.071 5.072 5.071c.326.367.631.367.916 0 .367-.285.367-.59 0-.916l-5.071-5.072 5.071-5.07c.367-.327.367-.632 0-.917-.285-.286-.59-.286-.916 0l-5.072 5.07-5.07-5.07c-.327-.286-.632-.286-.917 0-.285.285-.285.59 0 .916l5.07 5.071-5.07 5.072c-.285.326-.285.631 0 .916z"
          fillRule="evenodd"
        />
    </svg>
