<svg viewBox="0 0 30 30" xmlns="http://www.w3.org/2000/svg">
      <path
        d="M20.627-.005c.345 0 .625.28.625.625v4.377h1.876c1.034 0 1.875.841 1.875 1.875v1.876h4.377a.625.625 0 010 1.25h-4.377v3.752h4.377a.625.625 0 010 1.25h-4.377v5.002h4.377a.625.625 0 010 1.25h-4.377v1.876a1.878 1.878 0 01-1.875 1.875h-1.876v4.377a.625.625 0 01-1.25 0v-4.377H16.25v4.377a.625.625 0 01-1.25 0v-4.377H9.998v4.377a.625.625 0 01-1.25 0v-4.377H6.872a1.878 1.878 0 01-1.875-1.875v-1.876H.62a.625.625 0 010-1.25h4.377V16.25H.62a.625.625 0 010-1.25h4.377V9.998H.62a.625.625 0 010-1.25h4.377V6.872c0-1.034.841-1.875 1.875-1.875h1.876V.62a.625.625 0 011.25 0v4.377h3.752V.62a.625.625 0 011.25 0v4.377h5.002V.62c0-.345.28-.625.625-.625zm2.5 6.252H6.873a.634.634 0 00-.625.625v16.256c0 .344.28.625.625.625h16.256a.626.626 0 00.625-.625V6.872a.626.626 0 00-.625-.625zm-3.75 1.25a3.13 3.13 0 013.126 3.127v8.752a3.13 3.13 0 01-3.127 3.127h-8.752a3.13 3.13 0 01-3.127-3.127v-8.752a3.13 3.13 0 013.127-3.127zm0 1.25h-8.753a1.878 1.878 0 00-1.876 1.877v8.752c0 1.035.841 1.876 1.876 1.876h8.752a1.878 1.878 0 001.876-1.876v-8.752a1.878 1.878 0 00-1.876-1.876zm-1.251 8.754a.625.625 0 010 1.25h-2.5a.625.625 0 010-1.25zm-3.751-3.751a.625.625 0 010 1.25h-2.501a.625.625 0 010-1.25zm2.5-2.501a.625.625 0 010 1.25h-5.001a.625.625 0 010-1.25z"
        fillRule="evenodd"
      />
    </svg>
