<svg viewBox="0 0 30 30" xmlns="http://www.w3.org/2000/svg">
        <path
          d="M28.429 3.75h-8.572V.645c0-.43-.19-.645-.571-.645H9.514c-.419 0-.628.215-.628.645V3.75H1.57c-.38 0-.571.215-.571.645 0 .39.19.585.571.585h2.46v24.375c0 .43.21.645.628.645h19.486c.419 0 .628-.215.628-.645V4.98h3.658c.38 0 .571-.195.571-.585 0-.43-.19-.645-.571-.645zM10.143 1.23h8.514v2.52h-8.514V1.23zm13.371 27.54H5.228V4.98h18.286v23.79zm-14-20.625c-.419 0-.628.195-.628.586v15c0 .43.21.644.628.644.42 0 .629-.215.629-.644v-15c0-.391-.21-.586-.629-.586zm4.857 0c-.38 0-.571.195-.571.586v15c0 .43.19.644.571.644.42 0 .629-.215.629-.644v-15c0-.391-.21-.586-.629-.586zm4.286.586v15c0 .43.21.644.629.644.38 0 .571-.215.571-.644v-15c0-.391-.19-.586-.571-.586-.42 0-.629.195-.629.586z"
          fillRule="evenodd" 
        />
    </svg>
