<svg viewBox="0 0 30 30" xmlns="http://www.w3.org/2000/svg">
        <path
          d="M14.97 0C10.854 0 7.331 1.466 4.4 4.4 1.465 7.331 0 10.875 0 15.03c0 4.115 1.466 7.638 4.4 10.57 2.932 2.934 6.455 4.4 10.57 4.4 4.154 0 7.698-1.466 10.63-4.4 2.934-2.932 4.4-6.455 4.4-10.57 0-4.154-1.466-7.698-4.4-10.63C22.669 1.465 19.125 0 14.97 0zm0 28.717c-3.748 0-6.966-1.344-9.654-4.033-2.689-2.688-4.033-5.906-4.033-9.653 0-3.789 1.344-7.017 4.033-9.685 2.688-2.668 5.906-4.002 9.653-4.002 3.789 0 7.017 1.334 9.685 4.002 2.668 2.668 4.002 5.896 4.002 9.685 0 3.747-1.334 6.965-4.002 9.653-2.668 2.689-5.896 4.033-9.685 4.033zm3.91-5.255h-3.238V12.403c0-.448-.224-.672-.673-.672h-2.566c-.448 0-.672.224-.672.672 0 .448.224.672.672.672h1.955v10.387H11.06c-.407 0-.61.224-.61.672 0 .449.203.673.61.673h7.82c.449 0 .673-.224.673-.673 0-.448-.224-.672-.672-.672zM15.642 7.21c0-.367-.133-.682-.398-.947-.264-.265-.56-.397-.886-.397-.366 0-.682.132-.947.397-.264.265-.397.58-.397.947 0 .326.133.621.397.886.265.265.58.397.947.397.326 0 .622-.132.886-.397.265-.265.398-.56.398-.886z"
        fillRule="evenodd"
        />
    </svg>
