<svg viewBox="0 0 30 30" xmlns="http://www.w3.org/2000/svg">
      <path
        d="M25.82 3.596a3.004 3.004 0 013 3.001v16.806a3.004 3.004 0 01-3 3H3.011a3.004 3.004 0 01-3.001-3V6.597a3.004 3.004 0 013-3zm-9.718 11.458l-4.187 6.28a.581.581 0 01-.562.265.6.6 0 01-.496-.375L8.88 16.282l-1.768 2.652a.602.602 0 01-.5.267h-5.4v4.202c0 .993.808 1.8 1.8 1.8H25.82c.993 0 1.8-.807 1.8-1.8V19.2h-5.08l-2.222 3.334a.6.6 0 01-1.05-.096l-3.165-7.385zm11.518-4.255H1.21V18h5.08l2.22-3.334a.599.599 0 011.058.11l1.977 4.943 4.17-6.253a.613.613 0 01.554-.265c.22.02.41.16.497.361l3.165 7.385 1.787-2.68a.602.602 0 01.499-.267h5.402v-7.202zm-1.8-6.002H3.011c-.993 0-1.801.807-1.801 1.8v3.001h26.41v-3c0-.994-.808-1.801-1.8-1.801zm-21.008 1.2a1.2 1.2 0 110 2.4 1.2 1.2 0 010-2.4zm3.601 0a1.2 1.2 0 110 2.4 1.2 1.2 0 010-2.4zm3.602 0a1.2 1.2 0 110 2.4 1.2 1.2 0 010-2.4z"
        fillRule="evenodd"
      />
    </svg>
