<svg viewBox="0 0 30 30" xmlns="http://www.w3.org/2000/svg">
      <path
        d="M3.32 29.805a3.101 3.101 0 01-2.208-.915A3.09 3.09 0 01.2 26.687c0-.836.326-1.622.919-2.213l11.97-11.962c-1.475-3.293-.768-7.16 1.826-9.755a8.73 8.73 0 016.219-2.56 8.83 8.83 0 014.002.958.625.625 0 01.164.992l-3.859 3.958v2.631h2.448l3.956-3.944a.624.624 0 01.996.156 8.736 8.736 0 01-1.602 10.183 8.682 8.682 0 01-6.179 2.559 8.808 8.808 0 01-3.574-.76L5.53 28.889c-.59.59-1.375.916-2.209.916zM21.134 1.446c-2.025 0-3.919.78-5.335 2.194-2.318 2.317-2.88 5.821-1.399 8.715a.625.625 0 01-.115.727L2.001 25.356a1.872 1.872 0 00-.005 2.649c.71.71 1.94.709 2.649 0l12.27-12.271a.626.626 0 01.726-.115 7.536 7.536 0 003.419.821 7.438 7.438 0 005.295-2.193 7.484 7.484 0 001.726-7.928l-3.495 3.483a.623.623 0 01-.441.183h-3.33a.625.625 0 01-.625-.625V5.85c0-.163.064-.32.177-.436l3.408-3.494a7.6 7.6 0 00-2.641-.474z"
        fillRule="evenodd"
      />
    </svg>

