<svg viewBox="0 0 30 30" xmlns="http://www.w3.org/2000/svg">
        <path
          d="M21.863 2.931c.123.617.102 1.311-.036 2.081a13.044 13.044 0 01-.58 2.08 43.18 43.18 0 01-.524 1.362c.907.97.748 3.072-.113 3.755a5.202 5.202 0 01-1.047 2.782 5.275 5.275 0 01-.813.872v3.007c.954.354 2.757 1.017 3.162 1.168 1.293.484 2.226.856 3.037 1.218 2.028.907 3.22 1.739 3.735 2.768l.104.215a12.944 12.944 0 011.06 3.517c.066.419.109.808.133 1.158.014.215.019.371.019.461 0 .345-.28.625-.625.625H.625A.625.625 0 010 29.375c0-.09.005-.246.02-.46.023-.351.066-.74.132-1.159a12.944 12.944 0 011.06-3.517l.104-.214c.514-1.03 1.706-1.862 3.735-2.769.811-.362 1.744-.734 3.037-1.218.404-.15 2.207-.814 3.162-1.168v-3.007a5.275 5.275 0 01-.813-.872A5.202 5.202 0 019.39 12.21c-.868-.689-1.023-2.816-.092-3.777a56.77 56.77 0 01-.309-1.049 12.877 12.877 0 01-.365-1.73c-.282-2.147.341-3.635 2.199-3.828C12.38-.98 21.173-.521 21.863 2.931zm-10.007-.35a.625.625 0 01-.606.473c-1.233 0-1.605.776-1.387 2.436.063.479.175.991.332 1.562-.01-.033.43 1.427.43 1.627a.625.625 0 01-.345.559c-.28.14-.427.58-.362 1.169.03.27.105.53.197.708.033.064.031.064-.089.064.329.01.599.286.599.625 0 .95.303 1.759.813 2.437.304.406.604.673.784.793a.625.625 0 01.278.52v3.75c0 .26-.162.493-.406.585-.704.264-3.1 1.145-3.568 1.32-1.27.476-2.183.839-2.965 1.188-1.779.796-2.782 1.495-3.127 2.186a11.714 11.714 0 00-1.048 3.368c-.044.283-.077.55-.1.799h27.428a12.309 12.309 0 00-.1-.8 11.714 11.714 0 00-1.048-3.367c-.346-.69-1.349-1.39-3.128-2.186-.782-.35-1.694-.712-2.964-1.188-.47-.176-2.865-1.056-3.568-1.32a.625.625 0 01-.406-.585v-3.75c0-.21.104-.404.278-.52.18-.12.48-.387.785-.793a3.972 3.972 0 00.812-2.437c0-.345.28-.625.625-.625h-.093c-.052-.004-.047-.015-.022-.064a2.13 2.13 0 00.197-.708c.065-.59-.081-1.03-.362-1.17a.625.625 0 01-.345-.558c0-.241.683-1.97.696-2.007.245-.685.422-1.304.526-1.88.112-.628.129-1.173.04-1.616-.466-2.328-8.282-2.589-8.78-.596z"
          fillRule="evenodd"
        />
    </svg>
