<svg viewBox="0 0 30 30" xmlns="http://www.w3.org/2000/svg">
        <path
          d="M15.117 25.254c.43 0 .645-.215.645-.645v-8.73c0-.43-.215-.645-.645-.645-.43 0-.644.215-.644.645v8.73c0 .43.214.645.644.645zm-2.87-1.406c.429 0 .644-.196.644-.586v-8.614c0-.43-.215-.644-.645-.644-.43 0-.644.215-.644.644v8.614c0 .39.214.586.644.586zM9.256 22.5c.43 0 .645-.215.645-.645V13.36c0-.39-.214-.586-.644-.586-.43 0-.645.196-.645.586v8.496c0 .43.215.645.645.645zm-2.87-1.348c.39 0 .586-.215.586-.644v-8.262c0-.43-.196-.644-.586-.644-.43 0-.645.214-.645.644v8.262c0 .43.215.644.645.644zm-2.989-1.289c.391 0 .586-.195.586-.586v-8.144c0-.43-.195-.645-.586-.645-.43 0-.644.215-.644.645v8.144c0 .39.215.586.644.586zM30 6.855v-.117c0-.078-.04-.117-.117-.117l-.117-.117c0-.078-.04-.117-.118-.117L11.484 0c-.234 0-.43.04-.586.117L.234 6.387 0 6.62v14.65c0 .273.117.468.352.585L18.516 30h.234c.156 0 .273-.04.352-.117l10.664-8.145c.156-.156.234-.312.234-.468V6.855zM11.367 1.23l16.64 5.743-9.257 6.035L5.098 7.852 2.109 6.738l9.258-5.508zM1.231 7.734l16.875 6.387V28.36L1.23 20.86V7.734zm18.164 20.39V14.122l9.375-6.094V20.86l-9.375 7.266z"
         fillRule="evenodd" 
        />
    </svg>
