<svg viewBox="0 0 30 30" xmlns="http://www.w3.org/2000/svg">
        <path
          d="M29.355 3.562c.43 0 .645.218.645.655v21.566c0 .437-.215.655-.645.655H.645c-.43 0-.645-.218-.645-.655V1.655C0 1.218.215 1 .645 1h8.73c.04 0 .117.02.234.06a.95.95 0 00.293.06l2.227 2.442h17.227zm-.585 1.25H11.895c-.079 0-.215-.039-.41-.118L9.14 2.31H1.23v22.876h27.54V4.813zM29.355 29H.645C.215 29 0 28.782 0 28.345c0-.437.215-.656.645-.656h28.71c.43 0 .645.219.645.656 0 .437-.215.655-.645.655zM7.735 11.187c.624 0 1.142.199 1.552.596.41.397.615.914.615 1.549v3.455c0 .636-.205 1.152-.615 1.55-.41.396-.928.595-1.553.595-.625 0-1.132-.199-1.523-.596-.39-.397-.586-.913-.586-1.549v-3.455c0-.635.195-1.152.586-1.549.39-.397.898-.596 1.523-.596zm1.113 2.145c0-.834-.371-1.251-1.114-1.251-.742 0-1.113.417-1.113 1.251v3.336c0 .834.371 1.251 1.113 1.251.743 0 1.114-.417 1.114-1.25v-3.337zm5.039-2.026v7.388h-.996v-6.256l-1.407 1.192v-1.072l1.407-1.252h.996zm4.336-.119c.625 0 1.123.199 1.494.596.37.397.595.914.674 1.549v3.455c0 .636-.205 1.152-.616 1.55-.41.396-.927.595-1.552.595s-1.133-.199-1.524-.596c-.39-.397-.586-.913-.586-1.549v-3.455c0-.635.196-1.152.586-1.549.39-.397.899-.596 1.524-.596zm1.172 2.145c0-.834-.391-1.251-1.172-1.251-.743 0-1.114.417-1.114 1.251v3.336c0 .834.371 1.251 1.114 1.251.78 0 1.172-.417 1.172-1.25v-3.337zm4.863-2.026v7.388h-.996v-6.256l-1.29 1.192v-1.072l1.407-1.252h.879z"
          fillRule="evenodd"
        />
    </svg>
