<svg viewBox="0 0 30 30" xmlns="http://www.w3.org/2000/svg">
        <path
          d="M5.621 20.08h2.505c.448 0 .672-.216.672-.648 0-.432-.224-.648-.672-.648H5.621c-1.222 0-2.25-.323-3.085-.971-.835-.648-1.253-1.62-1.253-2.915 0-1.218.5-2.209 1.497-2.975.998-.765 2.128-1.03 3.391-.795.448.079.713-.117.794-.589.123-2.041.958-3.769 2.505-5.182 1.548-1.414 3.381-2.12 5.5-2.12a8.14 8.14 0 014.307 1.207 7.936 7.936 0 013.024 3.269c.041.235.245.353.611.353 1.548-.079 2.892.412 4.033 1.472 1.14 1.06 1.71 2.356 1.71 3.887 0 .864-.172 1.64-.519 2.326-.346.688-.743 1.218-1.191 1.59a6.515 6.515 0 01-1.436.913c-.509.236-.916.383-1.222.442a4.287 4.287 0 01-.58.088h-1.894c-.448 0-.672.216-.672.648 0 .432.224.648.672.648h2.016l.244-.059a8.17 8.17 0 01.55-.147c.245-.059.52-.147.825-.265.306-.118.631-.265.978-.442a9.632 9.632 0 001.038-.618c.347-.236.672-.52.978-.854a5.63 5.63 0 00.794-1.119 6.44 6.44 0 00.55-1.413c.143-.53.214-1.11.214-1.738 0-1.806-.652-3.347-1.955-4.623-1.304-1.276-2.892-1.953-4.766-2.032-.815-1.452-1.976-2.61-3.483-3.474A9.552 9.552 0 0014.97 2c-2.362 0-4.42.746-6.17 2.238C7.048 5.73 6.01 7.595 5.683 9.833c-1.507-.118-2.83.324-3.971 1.325C.57 12.159 0 13.406 0 14.898c0 1.61.54 2.875 1.62 3.798 1.079.923 2.413 1.384 4.001 1.384zm9.348-6.95c-.407 0-.61.217-.61.649V24.85l-2.811-2.709c-.285-.314-.59-.314-.917 0-.326.314-.326.609 0 .884l3.91 3.769c.327.275.632.275.917 0l3.91-3.77c.286-.274.286-.569 0-.883-.284-.314-.59-.314-.916 0l-2.81 2.71V13.778c0-.432-.224-.648-.673-.648z"
          fillRule="evenodd"
        />
    </svg>
