<svg viewBox="0 0 30 30" xmlns="http://www.w3.org/2000/svg">
        <path
          d="M14.97 0C10.854 0 7.331 1.466 4.4 4.4 1.465 7.331 0 10.854 0 14.97c0 4.154 1.466 7.698 4.4 10.63 2.932 2.934 6.455 4.4 10.57 4.4 4.154 0 7.698-1.466 10.63-4.4 2.934-2.932 4.4-6.476 4.4-10.63 0-4.115-1.466-7.638-4.4-10.57C22.669 1.465 19.125 0 14.97 0zm0 28.656c-3.748 0-6.966-1.334-9.654-4.002-2.689-2.668-4.033-5.896-4.033-9.685 0-3.747 1.344-6.965 4.033-9.653 2.688-2.689 5.906-4.033 9.653-4.033 3.789 0 7.017 1.344 9.685 4.033 2.668 2.688 4.002 5.906 4.002 9.653 0 3.789-1.334 7.017-4.002 9.685-2.668 2.668-5.896 4.002-9.685 4.002zm7.82-14.297h-7.148v-7.21c0-.408-.224-.611-.673-.611-.407 0-.61.203-.61.61v7.21h-7.21c-.408 0-.611.204-.611.612 0 .448.203.672.61.672h7.21v7.148c0 .448.204.672.611.672.449 0 .673-.224.673-.672v-7.148h7.148c.448 0 .672-.224.672-.672 0-.408-.224-.611-.672-.611z"
         fillRule="evenodd"
        />
    </svg>
