<svg viewBox="0 0 30 30" xmlns="http://www.w3.org/2000/svg">
        <path
          d="M17.52 23.73c.39 0 .585.215.585.645v4.98c0 .43-.195.645-.585.645h-5.04c-.39 0-.585-.215-.585-.645v-4.98c0-.43.195-.645.585-.645h5.04zm-.645 1.29h-3.75v3.75h3.75v-3.75zm6.855-5.508l3.516 3.515c.078.078.117.235.117.47v.35l-3.515 3.516c-.078.078-.235.117-.47.117-.233 0-.41-.039-.526-.117l-3.457-3.515c-.352-.274-.352-.547 0-.82l3.457-3.516c.312-.274.605-.274.878 0zm-16.757-.117l3.515 3.457c.274.312.274.605 0 .878l-3.515 3.516c-.078.156-.196.234-.352.234-.234 0-.39-.039-.469-.117l-3.515-3.515c-.078-.078-.117-.235-.117-.47 0-.077.02-.175.058-.292a.959.959 0 00.059-.234l3.515-3.457c.274-.352.547-.352.82 0zm16.406 1.347l-2.637 2.637 2.637 2.637 2.637-2.637-2.637-2.637zm-16.758 0L3.984 23.38l2.637 2.637 2.637-2.637-2.637-2.637zM17.52 0c.39 0 .585.215.585.645v4.98c0 .43-.195.645-.585.645l-1.876-.001.001 5.03c.586.09 1.112.308 1.58.654l3.488-3.486-1.318-1.319c-.313-.312-.313-.605 0-.878l3.457-3.516c.312-.274.605-.274.878 0l3.516 3.516c.274.273.274.566 0 .878l-3.516 3.457c0 .079-.117.118-.351.118a.959.959 0 01-.234-.059.964.964 0 00-.293-.059l-1.261-1.26-3.495 3.497c.317.451.52.955.606 1.512h5.027l.001-1.874c0-.39.215-.585.645-.585h4.98c.43 0 .645.195.645.585v5.04c0 .39-.215.585-.645.585h-4.98c-.43 0-.645-.195-.645-.585v-1.876l-5.028.001a3.567 3.567 0 01-1.036 2.021c-.723.723-1.611 1.084-2.666 1.084s-1.943-.361-2.666-1.084c-.723-.723-1.084-1.611-1.084-2.666s.361-1.943 1.084-2.666a3.567 3.567 0 012.02-1.036V6.27H12.48c-.39 0-.585-.214-.585-.644V.645c0-.43.195-.645.585-.645h5.04zM5.625 11.895c.43 0 .645.195.645.585v5.04c0 .39-.215.585-.645.585H.645c-.43 0-.645-.195-.645-.585v-5.04c0-.39.215-.585.645-.585h4.98zM15 12.48c-.664 0-1.25.254-1.758.762S12.48 14.336 12.48 15c0 .664.254 1.25.762 1.758s1.094.762 1.758.762c.664 0 1.25-.254 1.758-.762s.761-1.094.761-1.758c0-.664-.253-1.25-.761-1.758S15.664 12.48 15 12.48zm-10.02.645H1.23v3.75h3.75v-3.75zm23.79 0h-3.75v3.75h3.75v-3.75zm-.88.879v1.875h-1.874v-1.875h1.875zM6.974 2.637l3.515 3.515c.157.078.235.235.235.47 0 .155-.04.273-.118.35l-3.632 3.633c-.078.079-.196.118-.352.118-.234 0-.39-.04-.469-.118L2.637 6.973c-.274-.274-.274-.547 0-.82l3.515-3.516c.274-.274.547-.274.82 0zM6.62 3.984L3.984 6.621l2.637 2.637L9.258 6.62 6.62 3.984zm16.758 0l-2.637 2.637 2.637 2.637 2.637-2.637-2.637-2.637zm0 1.23l1.348 1.349-1.348 1.289-1.29-1.29 1.29-1.347zM16.875 1.23h-3.75v3.75h3.75V1.23zm-.996.997v1.875h-1.875V2.227h1.875z"
          fillRule="evenodd"
        />
    </svg>
