<svg viewBox="0 0 30 30" xmlns="http://www.w3.org/2000/svg">
        <path
          d="M15 0c8.284 0 15 6.716 15 15 0 8.284-6.716 15-15 15-8.284 0-15-6.716-15-15C0 6.716 6.716 0 15 0zm0 1.008C7.273 1.008 1.008 7.273 1.008 15c0 7.727 6.265 13.992 13.992 13.992 7.727 0 13.992-6.265 13.992-13.992 0-7.727-6.265-13.992-13.992-13.992zm5.672 7.816c.279 0 .504.225.504.504v11.344a.504.504 0 01-.504.504H9.328a.504.504 0 01-.504-.504V9.328c0-.279.225-.504.504-.504h11.344zm-.504 1.008H9.832v10.336h10.336V9.832z"
          fillRule="evenodd"
        />
    </svg>
