<svg viewBox="0 0 30 30" xmlns="http://www.w3.org/2000/svg">
        <path
          d="M8.658 12.72c-.278-.291-.575-.27-.893.062l-3.156 4.055c-.357-2.412.1-4.74 1.37-6.986 1.548-2.745 3.77-4.47 6.669-5.178 1.866-.457 3.682-.395 5.449.188 1.766.582 3.265 1.621 4.495 3.118.278.291.576.312.894.063.317-.291.337-.624.06-.998-1.39-1.664-3.087-2.828-5.092-3.493-2.005-.666-4.04-.728-6.104-.188-3.255.79-5.756 2.724-7.503 5.801A11.8 11.8 0 003.24 15.59l-2.025-3.12c-.278-.374-.576-.436-.893-.187-.358.208-.417.52-.18.936l3.514 5.489a.67.67 0 00.506.28.52.52 0 00.507-.218l4.108-5.115c.278-.29.238-.603-.119-.935zm17.686-.063c-.357-.54-.735-.52-1.132.063l-3.99 4.99c-.237.333-.198.644.12.935.278.292.575.27.893-.062l3.037-3.867c.08 2.412-.645 4.647-2.174 6.705-1.528 2.059-3.443 3.379-5.746 3.961-3.692.873-6.848-.062-9.468-2.807-.318-.25-.635-.25-.953 0-.317.333-.297.645.06.936 1.39 1.455 3.027 2.464 4.912 3.025a10.99 10.99 0 005.747.156c2.54-.665 4.635-2.058 6.282-4.18 1.648-2.12 2.511-4.49 2.59-7.11l2.263 3.493c.238.333.536.395.893.187.358-.208.417-.52.18-.936l-3.514-5.489z"
          fillRule="evenodd"
        />
    </svg>
