<svg viewBox="0 0 30 30" xmlns="http://www.w3.org/2000/svg">
      <path
        d="M28.13 2.496c1.033 0 1.875.841 1.874 1.875v16.256a1.878 1.878 0 01-1.876 1.876H16.874v1.95c2.946.206 5.635.858 7.567 1.87a.625.625 0 01-.58 1.109c-2.186-1.147-5.459-1.805-8.975-1.805-3.515 0-6.786.658-8.974 1.805a.625.625 0 11-.58-1.108c1.982-1.04 4.758-1.7 7.792-1.887v-1.934H1.871a1.878 1.878 0 01-1.876-1.876V4.37c0-1.034.842-1.875 1.876-1.875zM15.624 22.503h-1.25v1.886c.171-.003.339-.012.511-.012.249 0 .493.011.74.017v-1.891zM28.13 3.745H1.871a.625.625 0 00-.626.625v16.256c0 .345.28.625.626.625h26.258c.345 0 .626-.28.626-.625V4.37a.625.625 0 00-.626-.625zm-1.25 1.25c.345 0 .625.28.625.626v13.754c0 .346-.28.626-.625.626H3.121a.625.625 0 01-.625-.626V5.622c0-.345.28-.625.625-.625zm-.625 1.251H3.746V18.75h22.508V6.247z"
        fillRule="evenodd"
      />
    </svg>
